<svg width="97" height="97" viewBox="0 0 97 97" fill="none" xmlns="http://www.w3.org/2000/svg">
<path d="M48.5 81.48C30.264 81.48 15.52 66.736 15.52 48.5C15.52 30.264 30.264 15.52 48.5 15.52C66.736 15.52 81.48 30.264 81.48 48.5C81.48 66.736 66.736 81.48 48.5 81.48ZM48.5 19.4C32.398 19.4 19.4 32.398 19.4 48.5C19.4 64.602 32.398 77.6 48.5 77.6C64.602 77.6 77.6 64.602 77.6 48.5C77.6 32.398 64.602 19.4 48.5 19.4Z" fill="#F78C6A"/>
<path d="M48.5 66.7359L29.682 47.9179L32.398 45.2019L48.5 61.3039L64.602 45.2019L67.318 47.9179L48.5 66.7359Z" fill="#F78C6A"/>
<path d="M46.56 31.04H50.44V64.02H46.56V31.04Z" fill="#F78C6A"/>
</svg>
