<svg width="1303" height="1056" viewBox="0 0 1303 1056" fill="none" xmlns="http://www.w3.org/2000/svg">
<path d="M322.688 847.231C437.28 887.967 588.854 813.459 650.316 771.114C689.904 623.369 925.72 694.736 1038.68 748.888C1204.06 723.698 1230.41 605.306 1222.91 549.259C1189.59 348.305 1066.39 347.297 1008.95 371.912C908.744 466.154 836.681 329.037 813.176 248.698C808.277 156.387 663.963 117.061 592.418 108.937C484.445 121.564 450.564 174.823 447.119 199.874C537.66 431.21 413.704 488.577 340.409 488.343C229.509 443.581 131.172 454.67 95.866 465.809C-52.3522 696.94 185.323 816.395 322.688 847.231Z" stroke="#F78C6A" stroke-width="16"/>
</svg>
